<svg width="46" height="36" viewBox="0 0 46 36" fill="none" xmlns="http://www.w3.org/2000/svg">
    <path d="M15.44 17.489L13.584 16.1255H6.42627V20.0512H13.976L14.136 20.1712L15.4388 21.1244V17.4901L15.44 17.489ZM6.42741 14.9141H13.9771L14.1371 15.0307L15.44 15.9861V12.3495L13.584 10.9872H6.42627V14.9141H6.42741ZM15.4423 30.9427V27.7655L13.5863 26.4032H6.42627V30.9438H15.4411L15.4423 30.9427ZM15.4423 22.6272L13.5863 21.265H6.42627V25.1895H13.976L14.136 25.3084L15.4388 26.2661V22.6284L15.4423 22.6272ZM39.2514 26.2444V22.3175H34.0571L31.6343 24.1141L31.6114 27.7598L33.4937 26.3621L33.656 26.2432H39.248L39.2514 26.2444ZM39.2514 21.1015V17.177H34.0571L31.6366 18.9747L31.6137 22.6227L33.496 21.2238L33.6583 21.1027H39.2503L39.2514 21.1015ZM39.2514 15.9632V12.0387H34.0571L31.6366 13.8375L31.6137 17.4832L33.496 16.0844L33.6583 15.9644H39.2503V15.9621L39.2514 15.9632ZM31.6366 8.69696L31.6137 12.3472L33.496 10.9461L33.6583 10.8238H39.2503V6.90039H34.0537L31.6366 8.69696ZM39.2514 30.9164V27.457H34.0571L31.6366 29.2547L31.6251 30.9164H39.2514Z" fill="#0E78BC"/>
    <path d="M8.79651 26.4034L8.79308 30.944H7.38965L7.39308 26.4034H8.79536H8.79651ZM8.79651 21.2651V25.1908H7.39422V21.2651H8.79651ZM8.79651 16.1246V20.0491H7.39422V16.1257H8.79651V16.1246ZM8.79651 10.9863V14.9143H7.39422V10.9874H8.79651V10.9863ZM35.2411 27.456V30.9143H33.84V27.6148L34.0548 27.4548H35.2411V27.456ZM35.2411 22.3177V26.2446H33.84V22.4777L34.0548 22.3177H35.2411ZM35.2411 17.1783V21.1028H33.84V17.3406L34.0548 17.1806H35.2411V17.1783ZM35.2411 12.04V15.9646H33.84V12.1988L34.0548 12.0388H35.2411V12.04ZM35.2411 6.90056V10.8263H33.84V7.05941L34.0548 6.89941H35.2411V6.90056Z" fill="#3B9CD4"/>
    <path d="M33.8058 27.6425V30.9168H31.6264L31.6378 29.2551L33.807 27.6436L33.8058 27.6425ZM33.8058 22.5042V26.2448L31.615 27.7625L31.6378 24.1168L33.807 22.5054L33.8058 22.5042ZM33.8058 17.3659V21.1031L31.615 22.6231L31.6378 18.9774L33.807 17.3659H33.8058ZM33.8058 12.2231V15.9648L31.615 17.4848L31.6378 13.8391L33.807 12.2242L33.8058 12.2231ZM33.8058 7.08594V10.8231L31.615 12.3477L31.6378 8.69737L33.807 7.08594H33.8058ZM13.6001 14.9145V11.0002L15.4401 12.3488V15.9854L13.6001 14.9111V14.9145ZM13.6001 20.0505V16.1396L15.4401 17.4882V21.1248L13.6001 20.0505V20.0505ZM13.6001 25.1911V21.2825L15.4401 22.6276V26.2665L13.6001 25.1899V25.1911ZM13.6001 30.9431V26.4196L15.4401 27.7682V30.9431H13.6001Z" fill="#0761AC"/>
    <path d="M27.4093 26.4834V22.5566H16.647V26.4834H27.4093ZM27.4093 17.4206H16.647V21.3474H27.4093V17.4171V17.4206ZM27.4093 12.2777H16.647V16.2046H27.4093V12.2777V12.2777ZM27.4093 7.14057H16.647V11.0663H27.4093V7.14057V7.14057ZM16.647 5.92571H27.4093V2H16.647V5.92571V5.92571ZM27.4093 30.9166V27.7006H16.647V30.9166H27.4093Z" fill="#EC2F36"/>
    <path d="M19.4606 27.6994V30.9143H18.0571V27.6994H19.4606V27.6994ZM19.4606 22.5566V26.4834H18.0571V22.5566H19.4606V22.5566ZM19.4606 17.4194V21.3474H18.0571V17.4171H19.4606V17.4194ZM19.4606 12.2789V16.2046H18.0571V12.2777H19.4606V12.2789ZM19.4606 7.14057V11.0663H18.0571V7.14057H19.4606V7.14057ZM19.4606 2V5.92571H18.0571V2H19.4606V2Z" fill="#EF454F"/>
    <path d="M30.3932 24.2631L28.624 22.9602V26.5991L28.6275 26.6014L30.4023 27.9042L30.3909 24.2619L30.3932 24.2631ZM30.3932 19.1202L28.624 17.8231V21.4608H28.6275L30.4023 22.7659L30.3909 19.1202H30.3932ZM30.3932 13.9819L28.624 12.6859V16.3202L28.6275 16.3236L30.4023 17.6265L30.3909 13.9808L30.3932 13.9819ZM30.4229 9.60021L30.3886 9.62307L30.3932 8.8425L28.624 7.54536V11.1819L28.6275 11.1854L30.4023 12.4882L30.4217 9.60021H30.4229ZM30.416 30.9168L30.3932 29.4002L28.624 28.1019V30.9145H30.416V30.9168ZM28.624 2.40479V6.0425L28.6275 6.04478L30.4023 7.34764L30.4252 3.72707L28.624 2.40479Z" fill="#B92831"/>
    <path d="M0 32.5712L3.96572 31.0226H5.01257V32.1712H40.3954V31.0215H41.4469L45.4149 32.5712V33.3849H0V32.5735V32.5712Z" fill="#EC2F36"/>
</svg>