<svg width="46" height="36" viewBox="0 0 46 36" fill="none" xmlns="http://www.w3.org/2000/svg">
    <path d="M15.4411 17.489L13.584 16.1256H6.42627V20.0513H13.7794H13.976L14.1371 20.1713L15.4411 21.1244V17.489V17.489ZM6.42627 14.913H13.7794H13.976L14.1371 15.0307L15.4411 15.9862V12.3496L13.584 10.9873H6.42627V14.913ZM15.4411 30.9427V27.7667L13.584 26.4033H6.42627V30.9439H15.4411V30.9427ZM15.4411 22.6273L13.584 21.2662H6.42627V22.3679V22.6307V25.1907H13.7794H13.976L14.1371 25.3096L15.4411 26.2673V22.6273V22.6273Z" fill="#0873BA"/>
    <path d="M39.2515 26.2446V22.3177H34.0561L31.6366 24.1143L31.6138 27.7611L33.4961 26.3623L33.6595 26.2434H33.8572H39.2515V26.2446ZM39.2515 21.1017V17.1783H34.0561L31.6366 18.9748L31.6138 22.6228L33.4961 21.224L33.6595 21.1017H33.8572H39.2515ZM39.2515 15.9634V12.0388H34.0561L31.6366 13.8377L31.6138 17.4846L33.4961 16.0846L33.6595 15.9646H33.8572H39.2515V15.9634ZM31.6366 8.69713L31.6138 12.3474L33.4961 10.9463L33.6595 10.824H33.8572H39.2503V6.89941H34.0549L31.6366 8.69713ZM39.2515 30.9166V27.4571H34.0561L31.6366 29.2548L31.6263 30.9166H39.2515Z" fill="#0873BA"/>
    <path d="M8.79651 26.4033L8.79308 30.9439H7.38965L7.39308 26.4033H8.79651ZM8.79651 21.265V25.1907H7.39422V21.265H8.79651ZM8.79651 16.1244V20.0502H7.39422V16.1244H8.79651ZM8.79651 10.9873V14.9142H7.39422V10.9873H8.79651Z" fill="#419ED7"/>
    <path d="M35.2412 27.4562V30.9156H33.8389V27.615L34.0549 27.455H35.2412V27.4562ZM35.2412 22.3179V26.2447H33.8572H33.8389V22.4779L34.0549 22.3179H35.2412ZM35.2412 17.1784V21.1019H33.8572H33.8389V17.3396L34.0549 17.1784H35.2412V17.1784ZM35.2412 12.039V15.9636H33.8572H33.8389V12.199L34.0549 12.039H35.2412V12.039ZM35.2412 6.89958V10.8253H33.8572H33.8389V7.05958L34.0549 6.89844H35.2412V6.89958Z" fill="#419ED7"/>
    <path d="M33.8067 27.6422V30.9165H31.6262L31.6365 29.2548L33.8067 27.6422ZM33.8067 22.5039V26.2433L31.6147 27.761L31.6376 24.1142L33.8067 22.5039ZM33.8067 17.3645V21.1016L31.6147 22.6228L31.6376 18.9748L33.8067 17.3645ZM33.8067 12.2228V15.9633L31.6147 17.4845L31.6376 13.8376L33.8067 12.2228ZM33.8067 7.08447V10.8239L31.6147 12.3473L31.6376 8.69704L33.8067 7.08447Z" fill="#1457A4"/>
    <path d="M13.6011 14.913V11.001L15.4399 12.3495V15.9861L13.6011 14.913ZM13.6011 20.0501V16.1393L15.4399 17.489V21.1244L13.6011 20.0501ZM13.6011 25.1907V21.281L15.4399 22.6273V26.2673L13.6011 25.1907ZM13.6011 30.9427V26.4193L15.4399 27.7667V30.9427H13.6011V30.9427Z" fill="#1457A4"/>
    <path d="M27.4093 26.4834V22.5566H16.647V26.4834H27.4093ZM27.4093 17.4194H16.647V21.3474H27.4093V17.4194ZM27.4093 12.2789H16.647V16.2046H27.4093V12.2789ZM27.4093 7.14057H16.647V11.0663H27.4093V7.14057ZM16.647 5.92571H27.4093V2H16.647V5.92571ZM27.4093 30.9166V27.7006H16.647V30.9166H27.4093Z" fill="#F79030"/>
    <path d="M19.4604 27.6994V30.9154H18.0581V27.6994H19.4604ZM19.4604 22.5566V26.4834H18.0581V22.5566H19.4604ZM19.4604 17.4194V21.3474H18.0581V17.4194H19.4604V17.4194ZM19.4604 12.2789V16.2046H18.0581V12.2789H19.4604ZM19.4604 7.14057V11.0663H18.0581V7.14057H19.4604ZM19.4604 2V5.92571H18.0581V2H19.4604Z" fill="#F8A831"/>
    <path d="M30.3932 24.2619L28.624 22.9602V26.5991L28.6275 26.6014L30.4035 27.9054L30.3932 24.2619ZM30.3932 19.1214L28.624 17.8231V21.4608H28.6275L30.4035 22.7659L30.3932 19.1214ZM30.3932 13.9819L28.624 12.6848V16.3214L28.6275 16.3236L30.4035 17.6265L30.3932 13.9819ZM30.4229 9.60021L30.3897 9.62307L30.3932 8.8425L28.624 7.54536V11.1819L28.6275 11.1854L30.4035 12.4871L30.4229 9.60021ZM30.416 30.9168L30.3932 29.4002L28.624 28.1019V30.9168H30.416V30.9168ZM28.624 2.40479V6.0425L28.6275 6.04479L30.4035 7.34764L30.4263 3.72821L28.624 2.40479Z" fill="#E45F2A"/>
    <path d="M0 32.5723L3.96686 31.0226H5.01257V32.1712H40.3966V31.0215H41.4457L45.4149 32.5712V33.3849C31.9474 33.3849 18.4811 33.3838 5.01257 33.3838V33.3849H0V32.5723Z" fill="#F79030"/>
</svg>